<svg viewBox="0 0 1792 1792" xmlns="http://www.w3.org/2000/svg" fill-rule="evenodd" clip-rule="evenodd" stroke-linejoin="round" stroke-miterlimit="1.414"><path d="M1664 896c0 167.333-48.833 317.833-146.5 451.5-97.667 133.667-223.833 226.167-378.5 277.5-18 3.333-31.167 1-39.5-7-8.333-8-12.5-18-12.5-30v-211c0-64.667-17.333-112-52-142 38-4 72.167-10 102.5-18s61.667-21 94-39 59.333-40.167 81-66.5 39.333-61.333 53-105c13.667-43.667 20.5-93.833 20.5-150.5 0-80.667-26.333-149.333-79-206 24.667-60.667 22-128.667-8-204-18.667-6-45.667-2.333-81 11s-66 28-92 44l-38 24c-62-17.333-126-26-192-26s-130 8.667-192 26c-10.667-7.333-24.833-16.333-42.5-27-17.667-10.667-45.5-23.5-83.5-38.5S511.333 440 492 446c-29.333 75.333-31.667 143.333-7 204-52.667 56.667-79 125.333-79 206 0 56.667 6.833 106.667 20.5 150s31.167 78.333 52.5 105 48.167 49 80.5 67 63.667 31 94 39 64.5 14 102.5 18c-26.667 24-43 58.333-49 103-14 6.667-29 11.667-45 15s-35 5-57 5-43.833-7.167-65.5-21.5-40.167-35.167-55.5-62.5c-12.667-21.333-28.833-38.667-48.5-52-19.667-13.333-36.167-21.333-49.5-24l-20-3c-14 0-23.667 1.5-29 4.5-5.333 3-7 6.833-5 11.5s5 9.333 9 14 8.333 8.667 13 12l7 5c14.667 6.667 29.167 19.333 43.5 38 14.333 18.667 24.833 35.667 31.5 51l10 23c8.667 25.333 23.333 45.833 44 61.5 20.667 15.667 43 25.667 67 30 24 4.333 47.167 6.667 69.5 7 22.333.333 40.833-.833 55.5-3.5l23-4c0 25.333.167 55 .5 89 .333 34 .5 52 .5 54 0 12-4.333 22-13 30s-22 10.333-40 7c-154.667-51.333-280.833-143.833-378.5-277.5C176.833 1213.833 128 1063.333 128 896c0-139.333 34.333-267.833 103-385.5C299.667 392.833 392.833 299.667 510.5 231S756.667 128 896 128s267.833 34.333 385.5 103c117.667 68.667 210.833 161.833 279.5 279.5s103 246.167 103 385.5z" fill="#19a974" fill-rule="nonzero"/></svg>