<svg viewBox="0 0 1792 1516" xmlns="http://www.w3.org/2000/svg" fill-rule="evenodd" clip-rule="evenodd" stroke-linejoin="round" stroke-miterlimit="1.414"><path d="M597 283v1173c0 16.667-4.167 30.833-12.5 42.5-8.333 11.667-20.5 17.5-36.5 17.5-11.333 0-22.333-2.667-33-8L50 1275c-14-6.667-25.833-17.833-35.5-33.5C4.833 1225.833 0 1210.333 0 1195V55c0-13.333 3.333-24.667 10-34 6.667-9.333 16.333-14 29-14 9.333 0 24 5 44 15l511 256c2 2 3 3.667 3 5zm64 101l534 866-534-266V384zm1131 18v1054c0 16.667-4.667 30.167-14 40.5-9.333 10.333-22 15.5-38 15.5s-31.667-4.333-47-13l-441-220 540-877zm-3-120c0 2-85.5 141.833-256.5 419.5-171 277.667-271.167 440.167-300.5 487.5L842 555l324-527c11.333-18.667 28.667-28 52-28 9.333 0 18 2 26 6l541 270c2.667 1.333 4 3.333 4 6z" fill="#19a974" fill-rule="nonzero"/></svg>