<svg viewBox="0 0 1792 1792" xmlns="http://www.w3.org/2000/svg" fill-rule="evenodd" clip-rule="evenodd" stroke-linejoin="round" stroke-miterlimit="1.414"><path d="M1150 762c0 37.333-13.167 69-39.5 95s-58.167 39-95.5 39H762V627h253c37.333 0 69.167 13.167 95.5 39.5s39.5 58.167 39.5 95.5zm179 0c0-86.667-30.5-160.667-91.5-222s-135.167-92-222.5-92H582v896h180v-269h253c86.667 0 160.667-30.5 222-91.5s92-134.833 92-221.5zm463 134c0 121.333-23.667 237.333-71 348s-111 206-191 286-175.333 143.667-286 191-226.667 71-348 71-237.333-23.667-348-71-206-111-286-191-143.667-175.333-191-286S0 1017.333 0 896s23.667-237.333 71-348 111-206 191-286S437.333 118.333 548 71 774.667 0 896 0s237.333 23.667 348 71 206 111 286 191 143.667 175.333 191 286 71 226.667 71 348z" fill="#19a974" fill-rule="nonzero"/></svg>