<svg viewBox="0 0 1792 1792" xmlns="http://www.w3.org/2000/svg" fill-rule="evenodd" clip-rule="evenodd" stroke-linejoin="round" stroke-miterlimit="1.414"><path d="M610.685 1293.34l12.401-192.1-12.401-416.882c-.517-5.314-2.454-9.831-5.813-13.551-3.358-3.72-7.621-5.58-12.788-5.58-4.65 0-8.784 1.86-12.401 5.58-3.617 3.72-5.425 8.237-5.425 13.551l-10.851 416.882 10.851 192.1c.517 5.314 2.454 9.699 5.813 13.153 3.358 3.454 7.363 5.181 12.013 5.181 11.367 0 17.568-6.111 18.601-18.334zm229.414-23.115l8.525-168.188-9.3-467.1c0-8.502-3.359-14.879-10.076-19.13-4.134-2.657-8.267-3.985-12.401-3.985-4.133 0-8.267 1.328-12.4 3.985-6.718 4.251-10.076 10.628-10.076 19.13l-.775 4.783-7.751 461.52c0 .531 2.842 63.236 8.526 188.115v.797c0 5.314 1.55 9.831 4.65 13.551 4.65 5.845 10.592 8.768 17.826 8.768 5.684 0 10.851-2.391 15.501-7.174 4.65-3.72 6.976-9.034 6.976-15.942l.775-19.13zM30.176 999.211l15.501 102.029-15.501 100.434c-1.034 4.783-3.359 7.174-6.976 7.174s-5.942-2.391-6.975-7.174L3.049 1101.24l13.176-102.029c1.033-4.782 3.358-7.174 6.975-7.174 3.617 0 5.942 2.392 6.976 7.174zm66.654-62.97l20.151 164.999-20.151 161.811c-1.034 4.782-3.617 7.174-7.751 7.174-4.65 0-6.975-2.657-6.975-7.971L64.278 1101.24l17.826-164.999c0-4.783 2.325-7.174 6.975-7.174 4.134 0 6.717 2.391 7.751 7.174zm71.304-30.29l19.376 195.289-19.376 188.912c0 5.845-2.842 8.768-8.526 8.768-5.167 0-8.267-2.923-9.3-8.768l-16.276-188.912 16.276-195.289c1.033-6.377 4.133-9.565 9.3-9.565 5.684 0 8.526 3.188 8.526 9.565zm72.854-5.58l17.826 200.869-17.826 194.492c-1.033 6.908-4.65 10.362-10.851 10.362-6.717 0-10.075-3.454-10.075-10.362l-16.276-194.492 16.276-200.869c0-6.908 3.358-10.362 10.075-10.362 6.201 0 9.818 3.454 10.851 10.362zm72.854 14.348l16.276 186.521-16.276 196.086c-1.033 8.502-5.167 12.754-12.4 12.754-3.1 0-5.813-1.196-8.138-3.587-2.325-2.392-3.488-5.447-3.488-9.167l-15.501-196.086 15.501-186.521c0-3.188 1.163-5.978 3.488-8.37 2.325-2.391 5.038-3.587 8.138-3.587 7.233 0 11.367 3.986 12.4 11.957zm72.855-116.376l16.276 302.897-16.276 196.086c0 3.72-1.292 7.041-3.875 9.964-2.584 2.922-5.684 4.384-9.301 4.384-8.267 0-12.917-4.783-13.951-14.348l-13.951-196.086 13.951-302.897c1.034-9.566 5.684-14.348 13.951-14.348 3.617 0 6.717 1.461 9.301 4.384 2.583 2.923 3.875 6.244 3.875 9.964zm72.854-68.551l14.726 373.042-14.726 194.492c0 4.251-1.421 7.838-4.263 10.761-2.842 2.923-6.329 4.384-10.463 4.384-9.3 0-14.467-5.048-15.501-15.145l-12.4-194.492 12.4-373.042c1.034-10.096 6.201-15.145 15.501-15.145 4.134 0 7.621 1.462 10.463 4.384 2.842 2.923 4.263 6.51 4.263 10.761zm75.955-31.884l13.95 403.332-13.95 192.898c-1.034 11.159-6.717 16.739-17.051 16.739-9.818 0-15.243-5.58-16.276-16.739l-12.401-192.898 12.401-403.332c0-4.782 1.679-8.901 5.037-12.355 3.359-3.454 7.105-5.181 11.239-5.181 4.65 0 8.525 1.727 11.625 5.181 3.1 3.454 4.909 7.573 5.426 12.355zm150.358-3.188l11.626 406.52-11.626 190.506c0 5.314-1.937 9.964-5.812 13.95-3.876 3.985-8.397 5.978-13.564 5.978s-9.559-1.86-13.175-5.58c-3.617-3.72-5.684-8.502-6.201-14.348l-10.85-190.506 10.85-406.52c0-5.846 1.938-10.628 5.813-14.348 3.875-3.72 8.396-5.58 13.563-5.58s9.688 1.86 13.564 5.58c3.875 3.72 5.812 8.502 5.812 14.348zm76.73 15.145l10.851 392.172-10.851 188.115c0 5.845-2.067 10.894-6.2 15.145-4.134 4.251-9.043 6.377-14.726 6.377-5.684 0-10.593-2.126-14.726-6.377-4.134-4.251-6.459-9.3-6.975-15.145l-9.301-188.115 9.301-392.172c.516-6.377 2.841-11.691 6.975-15.942 4.133-4.251 9.042-6.377 14.726-6.377 5.683 0 10.463 2.126 14.338 6.377 3.875 4.251 6.071 9.565 6.588 15.942zm164.31 392.172l-10.851 184.13c0 6.908-2.325 12.753-6.975 17.536-4.651 4.782-10.334 7.174-17.051 7.174-6.717 0-12.401-2.392-17.051-7.174-4.651-4.783-7.234-10.628-7.751-17.536l-4.65-90.87-4.65-93.26 9.3-506.954v-2.392c1.034-7.971 4.134-14.347 9.301-19.13 4.65-3.72 9.817-5.58 15.501-5.58 4.133 0 8.009 1.329 11.625 3.986 7.234 4.251 11.368 11.159 12.401 20.724l10.851 509.346zm861.851-15.145c0 62.174-21.443 115.181-64.329 159.021-42.886 43.841-94.556 65.761-155.009 65.761H960.231c-6.717-1.063-12.401-3.986-17.051-8.768-4.651-4.783-6.976-10.628-6.976-17.536V568.778c0-12.222 7.234-20.99 21.702-26.304 43.919-18.067 90.68-27.101 140.283-27.101 100.756 0 188.078 34.939 261.965 104.818 73.888 69.879 115.224 155.833 124.008 257.861 27.385-11.69 55.803-17.536 85.255-17.536 60.453 0 112.123 22.053 155.009 66.159 42.886 44.106 64.329 97.512 64.329 160.217z" fill="#19a974" fill-rule="nonzero"/></svg>