<svg viewBox="0 0 1576 1280" xmlns="http://www.w3.org/2000/svg" fill-rule="evenodd" clip-rule="evenodd" stroke-linejoin="round" stroke-miterlimit="1.414"><path d="M1576 152c-44.667 65.333-98.667 121-162 167 .667 9.333 1 23.333 1 42 0 86.667-12.667 173.167-38 259.5s-63.833 169.167-115.5 248.5-113.167 149.5-184.5 210.5-157.333 109.667-258 146-208.333 54.5-323 54.5c-180.667 0-346-48.333-496-145 23.333 2.667 49.333 4 78 4 150 0 283.667-46 401-138-70-1.333-132.667-22.833-188-64.5S197.667 841.667 177 777c22 3.333 42.333 5 61 5 28.667 0 57-3.667 85-11-74.667-15.333-136.5-52.5-185.5-111.5S64 532 64 454v-4c45.333 25.333 94 39 146 41-44-29.333-79-67.667-105-115s-39-98.667-39-154c0-58.667 14.667-113 44-163 80.667 99.333 178.833 178.833 294.5 238.5S644 390.333 776 397c-5.333-25.333-8-50-8-74 0-89.333 31.5-165.5 94.5-228.5S1001.667 0 1091 0c93.333 0 172 34 236 102 72.667-14 141-40 205-78-24.667 76.667-72 136-142 178 62-6.667 124-23.333 186-50z" fill="#19a974" fill-rule="nonzero"/></svg>